<svg width="24" height="24" viewBox="0 0 24 24" fill="none" xmlns="http://www.w3.org/2000/svg">
<path fill-rule="evenodd" clip-rule="evenodd" d="M20.7279 0C21.2959 0 21.7565 0.431123 21.7565 0.962958V6.41027C21.7565 6.94209 21.2959 7.37323 20.7279 7.37323H14.9093C14.3412 7.37323 13.8807 6.94209 13.8807 6.41027C13.8807 5.87843 14.3412 5.44731 14.9093 5.44731H18.1464C14.2441 2.56732 8.56969 2.81265 4.96937 6.18329C1.08641 9.81855 1.08641 15.7124 4.96937 19.3476C8.85231 22.9828 15.1478 22.9828 19.0307 19.3476C21.6322 16.9122 22.4921 13.4624 21.6055 10.3541C21.4589 9.84025 21.785 9.31242 22.3338 9.17529C22.8827 9.03804 23.4463 9.34336 23.5929 9.8572C24.6613 13.6023 23.6271 17.7682 20.4854 20.7095C15.7991 25.0968 8.20105 25.0968 3.51474 20.7095C-1.17158 16.3221 -1.17158 9.2088 3.51474 4.82147C7.94723 0.671734 14.9846 0.446992 19.6993 4.14722V0.962958C19.6993 0.431123 20.1597 0 20.7279 0Z" fill="white"/>
</svg>
